<?xml version="1.0" encoding="UTF-8" standalone="no"?>
<!DOCTYPE svg PUBLIC "-//W3C//DTD SVG 1.1//EN"
 "http://www.w3.org/Graphics/SVG/1.1/DTD/svg11.dtd">
<!-- Generated by graphviz version 10.0.1 (20240210.2158)
 -->
<!-- Title: G Pages: 1 -->
<svg width="320pt" height="481pt"
 viewBox="0.00 0.00 320.00 480.80" xmlns="http://www.w3.org/2000/svg" xmlns:xlink="http://www.w3.org/1999/xlink">
<g id="graph0" class="graph" transform="scale(1 1) rotate(0) translate(4 476.8)">
<title>G</title>
<polygon fill="white" stroke="none" points="-4,4 -4,-476.8 316,-476.8 316,4 -4,4"/>
<text text-anchor="middle" x="156" y="-457.4" font-family="Arial" font-size="12.00">Séparation des couches</text>
<text text-anchor="middle" x="156" y="-443" font-family="Arial" font-size="12.00">(selon la Figure A17.24/F16.24 de Larman)</text>
<g id="clust1" class="cluster">
<title>cluster_0</title>
<polygon fill="#ddffdd" stroke="#ddffdd" points="8,-178 8,-342.4 304,-342.4 304,-178 8,-178"/>
<text text-anchor="middle" x="63" y="-329.85" font-family="Helvetica,sans-Serif" font-style="oblique" font-size="9.00">Couche présentation</text>
</g>
<g id="clust4" class="cluster">
<title>cluster_1</title>
<polygon fill="#ddddff" stroke="#ddddff" points="9,-8 9,-140 283,-140 283,-8 9,-8"/>
<text text-anchor="middle" x="55" y="-127.45" font-family="Helvetica,sans-Serif" font-style="oblique" font-size="9.00">Couche domaine</text>
</g>
<!-- utilisateur -->
<g id="node1" class="node">
<title>utilisateur</title>
<polygon fill="white" stroke="none" points="170,-436 114,-436 114,-379.2 170,-379.2 170,-436"/>
<text text-anchor="start" x="136" y="-409" font-family="Helvetica,sans-Serif" font-weight="bold" font-size="20.00">웃</text>
<text text-anchor="start" x="126" y="-390.45" font-family="Helvetica,sans-Serif" font-weight="bold" font-size="9.00">:Joueur</text>
</g>
<!-- pageWeb -->
<g id="node3" class="node">
<title>pageWeb</title>
<polygon fill="white" stroke="black" points="172,-315.6 106,-315.6 106,-279.6 178,-279.6 178,-309.6 172,-315.6"/>
<polyline fill="none" stroke="black" points="172,-315.6 172,-309.6"/>
<polyline fill="none" stroke="black" points="178,-309.6 172,-309.6"/>
<text text-anchor="middle" x="142" y="-299.85" font-family="Arial" font-size="9.00">Page web</text>
<text text-anchor="middle" x="142" y="-289.05" font-family="Arial" font-size="9.00">(navigateur)</text>
</g>
<!-- utilisateur&#45;&gt;pageWeb -->
<g id="edge8" class="edge">
<title>utilisateur&#45;&gt;pageWeb</title>
<path fill="none" stroke="black" stroke-dasharray="5,2" d="M142,-379.35C142,-363.51 142,-343.57 142,-327.47"/>
<polygon fill="black" stroke="black" points="145.5,-327.55 142,-317.55 138.5,-327.55 145.5,-327.55"/>
<text text-anchor="middle" x="191.5" y="-352.65" font-family="Arial" font-size="9.00"> &#160;appuie sur le bouton</text>
</g>
<!-- c10 -->
<g id="node2" class="node">
<title>c10</title>
<polygon fill="none" stroke="none" points="70,-315.6 16,-315.6 16,-279.6 70,-279.6 70,-315.6"/>
<text text-anchor="middle" x="43" y="-294.45" font-family="Arial" font-size="9.00"> &#160;</text>
</g>
<!-- c10&#45;&gt;pageWeb -->
<g id="edge1" class="edge">
<title>c10&#45;&gt;pageWeb</title>
<path fill="none" stroke="none" d="M69.68,-297.6C77.81,-297.6 85.94,-297.6 94.07,-297.6"/>
<polygon fill="none" stroke="none" points="94.05,-301.1 104.05,-297.6 94.05,-294.1 94.05,-301.1"/>
</g>
<!-- routeur -->
<g id="node4" class="node">
<title>routeur</title>
<polygon fill="lightyellow" stroke="black" points="170.5,-222 113.5,-222 113.5,-186 170.5,-186 170.5,-222"/>
<text text-anchor="start" x="125.5" y="-201.85" font-family="Arial" font-weight="bold" font-size="9.00">:Router</text>
</g>
<!-- pageWeb&#45;&gt;routeur -->
<g id="edge2" class="edge">
<title>pageWeb&#45;&gt;routeur</title>
<path fill="none" stroke="black" d="M142,-279.37C142,-266.53 142,-248.7 142,-233.72"/>
<polygon fill="black" stroke="black" points="145.5,-233.98 142,-223.98 138.5,-233.98 145.5,-233.98"/>
<text text-anchor="start" x="142" y="-253.05" font-family="Courier,monospace" font-weight="bold" font-size="9.00"> &#160;HTTP GET</text>
<text text-anchor="middle" x="213.5" y="-242.25" font-family="Courier,monospace" font-weight="bold" font-size="9.00"> &#160;/api/v1/demarrerJeu/Toto</text>
</g>
<!-- routeurNote -->
<g id="node6" class="node">
<title>routeurNote</title>
<polygon fill="yellow" stroke="black" points="290,-222 206,-222 206,-186 296,-186 296,-216 290,-222"/>
<polyline fill="none" stroke="black" points="290,-222 290,-216"/>
<polyline fill="none" stroke="black" points="296,-216 290,-216"/>
<text text-anchor="middle" x="251" y="-206.25" font-family="Helvetica,sans-Serif" font-style="oblique" font-size="9.00">Routeur Express</text>
<text text-anchor="middle" x="251" y="-195.45" font-family="Helvetica,sans-Serif" font-style="oblique" font-size="9.00">(Node)</text>
</g>
<!-- routeur&#45;&gt;routeurNote -->
<g id="edge4" class="edge">
<title>routeur&#45;&gt;routeurNote</title>
<path fill="none" stroke="black" stroke-dasharray="5,2" d="M170.95,-204C182.52,-204 194.09,-204 205.66,-204"/>
</g>
<!-- controleur -->
<g id="node9" class="node">
<title>controleur</title>
<polygon fill="lightyellow" stroke="black" points="177,-113.2 107,-113.2 107,-77.2 177,-77.2 177,-113.2"/>
<text text-anchor="start" x="119" y="-93.05" font-family="Arial" font-weight="bold" font-size="9.00">:JeuDeDes</text>
</g>
<!-- routeur&#45;&gt;controleur -->
<g id="edge7" class="edge">
<title>routeur&#45;&gt;controleur</title>
<path fill="none" stroke="black" d="M142,-185.84C142,-169.43 142,-144.38 142,-124.93"/>
<polygon fill="black" stroke="black" points="145.5,-125.18 142,-115.19 138.5,-125.19 145.5,-125.18"/>
<polygon fill="yellow" stroke="none" points="24.5,-152.84 24.5,-168.84 157.5,-168.84 157.5,-152.84 24.5,-152.84"/>
<text text-anchor="start" x="26.5" y="-157.69" font-family="Helvetica,sans-Serif" font-style="oblique" font-size="9.00">Opération système (du DSS)</text>
<text text-anchor="start" x="161.5" y="-158.34" font-family="Courier,monospace" font-weight="bold" font-size="10.00">demarrerJeu(nom)</text>
</g>
<!-- c11 -->
<g id="node5" class="node">
<title>c11</title>
<polygon fill="none" stroke="none" points="78,-222 16,-222 16,-186 78,-186 78,-222"/>
<text text-anchor="middle" x="47" y="-200.85" font-family="Arial" font-size="9.00"> &#160;&#160;&#160;&#160;&#160;&#160;&#160;&#160;&#160;&#160;&#160;&#160;&#160;&#160;&#160;</text>
</g>
<!-- c11&#45;&gt;routeur -->
<g id="edge3" class="edge">
<title>c11&#45;&gt;routeur</title>
<path fill="none" stroke="none" d="M77.8,-204C85.81,-204 93.82,-204 101.83,-204"/>
<polygon fill="none" stroke="none" points="101.65,-207.5 111.65,-204 101.65,-200.5 101.65,-207.5"/>
</g>
<!-- domain -->
<g id="node7" class="node">
<title>domain</title>
<ellipse fill="none" stroke="none" cx="142" cy="-17.8" rx="1.8" ry="1.8"/>
</g>
<!-- controleurNote -->
<g id="node8" class="node">
<title>controleurNote</title>
<polygon fill="yellow" stroke="black" points="269,-113.2 213,-113.2 213,-77.2 275,-77.2 275,-107.2 269,-113.2"/>
<polyline fill="none" stroke="black" points="269,-113.2 269,-107.2"/>
<polyline fill="none" stroke="black" points="275,-107.2 269,-107.2"/>
<text text-anchor="middle" x="244" y="-92.05" font-family="Helvetica,sans-Serif" font-style="oblique" font-size="9.00">contrôleur</text>
</g>
<!-- controleur&#45;&gt;domain -->
<g id="edge9" class="edge">
<title>controleur&#45;&gt;domain</title>
<path fill="none" stroke="black" d="M142,-76.71C142,-62.68 142,-43.33 142,-30.95"/>
<polygon fill="black" stroke="black" points="145.5,-31.21 142,-21.21 138.5,-31.21 145.5,-31.21"/>
<text text-anchor="middle" x="186.5" y="-50.65" font-family="Arial" font-size="9.00"> ... (selon la logique</text>
<text text-anchor="middle" x="186.5" y="-39.85" font-family="Arial" font-size="9.00">du domaine)</text>
</g>
<!-- controleur&#45;&gt;controleurNote -->
<g id="edge6" class="edge">
<title>controleur&#45;&gt;controleurNote</title>
<path fill="none" stroke="black" stroke-dasharray="5,2" d="M177.46,-95.2C189.16,-95.2 200.85,-95.2 212.55,-95.2"/>
</g>
<!-- filler6 -->
<g id="node10" class="node">
<title>filler6</title>
<polygon fill="none" stroke="none" points="71,-113.2 17,-113.2 17,-77.2 71,-77.2 71,-113.2"/>
</g>
<!-- filler6&#45;&gt;controleur -->
<g id="edge5" class="edge">
<title>filler6&#45;&gt;controleur</title>
<path fill="none" stroke="none" d="M70.8,-95.2C78.93,-95.2 87.05,-95.2 95.18,-95.2"/>
<polygon fill="none" stroke="none" points="95.16,-98.7 105.16,-95.2 95.16,-91.7 95.16,-98.7"/>
</g>
</g>
</svg>
