<svg xmlns="http://www.w3.org/2000/svg" xmlns:xlink="http://www.w3.org/1999/xlink" contentStyleType="text/css" data-diagram-type="CLASS" height="766px" preserveAspectRatio="none" style="width:2080px;height:766px;background:#FFFFFF;" version="1.1" viewBox="0 0 2080 766" width="2080px" zoomAndPan="magnify"><defs/><g><!--class De--><g class="entity" data-entity="De" data-source-line="1" data-uid="ent0002" id="entity_De"><rect fill="#F1F1F1" height="96.8906" rx="2.5" ry="2.5" style="stroke:#181818;stroke-width:0.5;" width="140.8027" x="387.49" y="605.98"/><ellipse cx="443.9446" cy="621.98" fill="#ADD1B2" rx="11" ry="11" style="stroke:#181818;stroke-width:1;"/><path d="M446.9133,627.6206 Q446.3352,627.9175 445.6946,628.0581 Q445.054,628.2144 444.3508,628.2144 Q441.8508,628.2144 440.5227,626.5737 Q439.2102,624.9175 439.2102,621.7925 Q439.2102,618.6675 440.5227,617.0112 Q441.8508,615.355 444.3508,615.355 Q445.054,615.355 445.6946,615.5112 Q446.3508,615.6675 446.9133,615.9644 L446.9133,618.6831 Q446.2883,618.105 445.6946,617.8394 Q445.1008,617.5581 444.4758,617.5581 Q443.1321,617.5581 442.4446,618.6362 Q441.7571,619.6987 441.7571,621.7925 Q441.7571,623.8862 442.4446,624.9644 Q443.1321,626.0269 444.4758,626.0269 Q445.1008,626.0269 445.6946,625.7612 Q446.2883,625.48 446.9133,624.9019 L446.9133,627.6206 Z " fill="#000000"/><text fill="#000000" font-family="sans-serif" font-size="14" lengthAdjust="spacing" textLength="19.3936" x="464.4446" y="626.8267">De</text><line style="stroke:#181818;stroke-width:0.5;" x1="388.49" x2="527.2927" y1="637.98" y2="637.98"/><rect fill="none" height="6" style="stroke:#C82930;stroke-width:1;" width="6" x="395.49" y="648.6284"/><text fill="#000000" font-family="sans-serif" font-size="14" lengthAdjust="spacing" textLength="114.8027" x="407.49" y="654.9751">_valeur: number</text><ellipse cx="398.49" cy="667.9253" fill="none" rx="3" ry="3" style="stroke:#038048;stroke-width:1;"/><text fill="#000000" font-family="sans-serif" font-size="14" lengthAdjust="spacing" textLength="107.8027" x="407.49" y="671.272">valeur: number</text><line style="stroke:#181818;stroke-width:0.5;" x1="388.49" x2="527.2927" y1="678.5737" y2="678.5737"/><ellipse cx="398.49" cy="692.2222" fill="#84BE84" rx="3" ry="3" style="stroke:#038048;stroke-width:1;"/><text fill="#000000" font-family="sans-serif" font-size="14" lengthAdjust="spacing" textLength="101.8965" x="407.49" y="695.5689">brasser(): void</text></g><!--class default--><g class="entity" data-entity="default" data-source-line="6" data-uid="ent0003" id="entity_default"><rect fill="#F1F1F1" height="64.2969" rx="2.5" ry="2.5" style="stroke:#181818;stroke-width:0.5;" width="123.5693" x="1273.1" y="351.31"/><ellipse cx="1307.1393" cy="367.31" fill="#A9DCDF" rx="11" ry="11" style="stroke:#181818;stroke-width:1;"/><path d="M1307.2487,362.6537 L1306.0924,367.7319 L1308.4206,367.7319 L1307.2487,362.6537 Z M1305.7643,360.4194 L1308.7487,360.4194 L1312.1081,372.81 L1309.6549,372.81 L1308.8893,369.7475 L1305.6081,369.7475 L1304.8581,372.81 L1302.4206,372.81 L1305.7643,360.4194 Z " fill="#000000"/><text fill="#000000" font-family="sans-serif" font-size="14" font-style="italic" lengthAdjust="spacing" textLength="49.2598" x="1325.3703" y="372.1567">default</text><line style="stroke:#181818;stroke-width:0.5;" x1="1274.1" x2="1395.6693" y1="383.31" y2="383.31"/><ellipse cx="1284.1" cy="396.9584" fill="none" rx="3" ry="3" style="stroke:#038048;stroke-width:1;"/><text fill="#000000" font-family="sans-serif" font-size="14" font-style="italic" lengthAdjust="spacing" textLength="97.5693" x="1293.1" y="400.3051">code: number</text><line style="stroke:#181818;stroke-width:0.5;" x1="1274.1" x2="1395.6693" y1="407.6069" y2="407.6069"/></g><!--class Error--><g class="entity" data-entity="Error" data-source-line="7" data-uid="ent0004" id="entity_Error"><rect fill="#F1F1F1" height="48" rx="2.5" ry="2.5" style="stroke:#181818;stroke-width:0.5;" width="66.6787" x="1301.55" y="88.49"/><ellipse cx="1316.55" cy="104.49" fill="#ADD1B2" rx="11" ry="11" style="stroke:#181818;stroke-width:1;"/><path d="M1319.5188,110.1306 Q1318.9406,110.4275 1318.3,110.5681 Q1317.6594,110.7244 1316.9563,110.7244 Q1314.4563,110.7244 1313.1281,109.0838 Q1311.8156,107.4275 1311.8156,104.3025 Q1311.8156,101.1775 1313.1281,99.5213 Q1314.4563,97.865 1316.9563,97.865 Q1317.6594,97.865 1318.3,98.0213 Q1318.9563,98.1775 1319.5188,98.4744 L1319.5188,101.1931 Q1318.8938,100.615 1318.3,100.3494 Q1317.7063,100.0681 1317.0813,100.0681 Q1315.7375,100.0681 1315.05,101.1463 Q1314.3625,102.2088 1314.3625,104.3025 Q1314.3625,106.3963 1315.05,107.4744 Q1315.7375,108.5369 1317.0813,108.5369 Q1317.7063,108.5369 1318.3,108.2713 Q1318.8938,107.99 1319.5188,107.4119 L1319.5188,110.1306 Z " fill="#000000"/><text fill="#000000" font-family="sans-serif" font-size="14" lengthAdjust="spacing" textLength="34.6787" x="1330.55" y="109.3367">Error</text><line style="stroke:#181818;stroke-width:0.5;" x1="1302.55" x2="1367.2287" y1="120.49" y2="120.49"/><line style="stroke:#181818;stroke-width:0.5;" x1="1302.55" x2="1367.2287" y1="128.49" y2="128.49"/></g><!--class InvalidParameterError--><g class="entity" data-entity="InvalidParameterError" data-source-line="9" data-uid="ent0006" id="entity_InvalidParameterError"><rect fill="#F1F1F1" height="64.2969" rx="2.5" ry="2.5" style="stroke:#181818;stroke-width:0.5;" width="186.6768" x="1431.55" y="351.31"/><ellipse cx="1446.55" cy="367.31" fill="#ADD1B2" rx="11" ry="11" style="stroke:#181818;stroke-width:1;"/><path d="M1449.5188,372.9506 Q1448.9406,373.2475 1448.3,373.3881 Q1447.6594,373.5444 1446.9563,373.5444 Q1444.4563,373.5444 1443.1281,371.9037 Q1441.8156,370.2475 1441.8156,367.1225 Q1441.8156,363.9975 1443.1281,362.3412 Q1444.4563,360.685 1446.9563,360.685 Q1447.6594,360.685 1448.3,360.8412 Q1448.9563,360.9975 1449.5188,361.2944 L1449.5188,364.0131 Q1448.8938,363.435 1448.3,363.1694 Q1447.7063,362.8881 1447.0813,362.8881 Q1445.7375,362.8881 1445.05,363.9662 Q1444.3625,365.0287 1444.3625,367.1225 Q1444.3625,369.2162 1445.05,370.2944 Q1445.7375,371.3569 1447.0813,371.3569 Q1447.7063,371.3569 1448.3,371.0912 Q1448.8938,370.81 1449.5188,370.2319 L1449.5188,372.9506 Z " fill="#000000"/><text fill="#000000" font-family="sans-serif" font-size="14" lengthAdjust="spacing" textLength="154.6768" x="1460.55" y="372.1567">InvalidParameterError</text><line style="stroke:#181818;stroke-width:0.5;" x1="1432.55" x2="1617.2268" y1="383.31" y2="383.31"/><ellipse cx="1442.55" cy="396.9584" fill="none" rx="3" ry="3" style="stroke:#038048;stroke-width:1;"/><text fill="#000000" font-family="sans-serif" font-size="14" lengthAdjust="spacing" textLength="69.6514" x="1451.55" y="400.3051">code: 400</text><line style="stroke:#181818;stroke-width:0.5;" x1="1432.55" x2="1617.2268" y1="407.6069" y2="407.6069"/></g><!--class AbstractError--><g class="entity" data-entity="AbstractError" data-source-line="10" data-uid="ent0007" id="entity_AbstractError"><rect fill="#F1F1F1" height="48" rx="2.5" ry="2.5" style="stroke:#181818;stroke-width:0.5;" width="125.4473" x="1658.17" y="88.49"/><ellipse cx="1673.17" cy="104.49" fill="#ADD1B2" rx="11" ry="11" style="stroke:#181818;stroke-width:1;"/><path d="M1676.1388,110.1306 Q1675.5606,110.4275 1674.92,110.5681 Q1674.2794,110.7244 1673.5763,110.7244 Q1671.0763,110.7244 1669.7481,109.0838 Q1668.4356,107.4275 1668.4356,104.3025 Q1668.4356,101.1775 1669.7481,99.5213 Q1671.0763,97.865 1673.5763,97.865 Q1674.2794,97.865 1674.92,98.0213 Q1675.5763,98.1775 1676.1388,98.4744 L1676.1388,101.1931 Q1675.5138,100.615 1674.92,100.3494 Q1674.3263,100.0681 1673.7013,100.0681 Q1672.3575,100.0681 1671.67,101.1463 Q1670.9825,102.2088 1670.9825,104.3025 Q1670.9825,106.3963 1671.67,107.4744 Q1672.3575,108.5369 1673.7013,108.5369 Q1674.3263,108.5369 1674.92,108.2713 Q1675.5138,107.99 1676.1388,107.4119 L1676.1388,110.1306 Z " fill="#000000"/><text fill="#000000" font-family="sans-serif" font-size="14" lengthAdjust="spacing" textLength="93.4473" x="1687.17" y="109.3367">AbstractError</text><line style="stroke:#181818;stroke-width:0.5;" x1="1659.17" x2="1782.6173" y1="120.49" y2="120.49"/><line style="stroke:#181818;stroke-width:0.5;" x1="1659.17" x2="1782.6173" y1="128.49" y2="128.49"/></g><!--class Joueur--><g class="entity" data-entity="Joueur" data-source-line="12" data-uid="ent0009" id="entity_Joueur"><rect fill="#F1F1F1" height="210.9688" rx="2.5" ry="2.5" style="stroke:#181818;stroke-width:0.5;" width="506.9629" x="563.41" y="548.94"/><ellipse cx="790.2367" cy="564.94" fill="#ADD1B2" rx="11" ry="11" style="stroke:#181818;stroke-width:1;"/><path d="M793.2054,570.5806 Q792.6273,570.8775 791.9867,571.0181 Q791.346,571.1744 790.6429,571.1744 Q788.1429,571.1744 786.8148,569.5337 Q785.5023,567.8775 785.5023,564.7525 Q785.5023,561.6275 786.8148,559.9712 Q788.1429,558.315 790.6429,558.315 Q791.346,558.315 791.9867,558.4712 Q792.6429,558.6275 793.2054,558.9244 L793.2054,561.6431 Q792.5804,561.065 791.9867,560.7994 Q791.3929,560.5181 790.7679,560.5181 Q789.4242,560.5181 788.7367,561.5962 Q788.0492,562.6587 788.0492,564.7525 Q788.0492,566.8462 788.7367,567.9244 Q789.4242,568.9869 790.7679,568.9869 Q791.3929,568.9869 791.9867,568.7212 Q792.5804,568.44 793.2054,567.8619 L793.2054,570.5806 Z " fill="#000000"/><text fill="#000000" font-family="sans-serif" font-size="14" lengthAdjust="spacing" textLength="44.8096" x="810.7367" y="569.7867">Joueur</text><line style="stroke:#181818;stroke-width:0.5;" x1="564.41" x2="1069.3729" y1="580.94" y2="580.94"/><rect fill="none" height="6" style="stroke:#C82930;stroke-width:1;" width="6" x="571.41" y="591.5884"/><text fill="#000000" font-family="sans-serif" font-size="14" lengthAdjust="spacing" textLength="87.4316" x="583.41" y="597.9351">_nom: string</text><rect fill="none" height="6" style="stroke:#C82930;stroke-width:1;" width="6" x="571.41" y="607.8853"/><text fill="#000000" font-family="sans-serif" font-size="14" lengthAdjust="spacing" textLength="143.1787" x="583.41" y="614.232">_nbLancers: number</text><rect fill="none" height="6" style="stroke:#C82930;stroke-width:1;" width="6" x="571.41" y="624.1822"/><text fill="#000000" font-family="sans-serif" font-size="14" lengthAdjust="spacing" textLength="196.2734" x="583.41" y="630.5289">_nbLancersGagnes: number</text><ellipse cx="574.41" cy="643.4791" fill="none" rx="3" ry="3" style="stroke:#038048;stroke-width:1;"/><text fill="#000000" font-family="sans-serif" font-size="14" lengthAdjust="spacing" textLength="80.4316" x="583.41" y="646.8257">nom: string</text><ellipse cx="574.41" cy="659.7759" fill="none" rx="3" ry="3" style="stroke:#038048;stroke-width:1;"/><text fill="#000000" font-family="sans-serif" font-size="14" lengthAdjust="spacing" textLength="114.5088" x="583.41" y="663.1226">lancers: number</text><ellipse cx="574.41" cy="676.0728" fill="none" rx="3" ry="3" style="stroke:#038048;stroke-width:1;"/><text fill="#000000" font-family="sans-serif" font-size="14" lengthAdjust="spacing" textLength="167.6035" x="583.41" y="679.4195">lancersGagnes: number</text><line style="stroke:#181818;stroke-width:0.5;" x1="564.41" x2="1069.3729" y1="686.7212" y2="686.7212"/><rect fill="#F24D5C" height="6" style="stroke:#C82930;stroke-width:1;" width="6" x="571.41" y="697.3697"/><text fill="#000000" font-family="sans-serif" font-size="14" lengthAdjust="spacing" textLength="227.541" x="583.41" y="703.7164">assainirNom(nom: string): string</text><ellipse cx="574.41" cy="716.6666" fill="#84BE84" rx="3" ry="3" style="stroke:#038048;stroke-width:1;"/><text fill="#000000" font-family="sans-serif" font-size="14" lengthAdjust="spacing" textLength="93.126" x="583.41" y="720.0132">lancer(): void</text><ellipse cx="574.41" cy="732.9634" fill="#84BE84" rx="3" ry="3" style="stroke:#038048;stroke-width:1;"/><text fill="#000000" font-family="sans-serif" font-size="14" lengthAdjust="spacing" textLength="99.3125" x="583.41" y="736.3101">gagner(): void</text><ellipse cx="574.41" cy="749.2603" fill="#84BE84" rx="3" ry="3" style="stroke:#038048;stroke-width:1;"/><text fill="#000000" font-family="sans-serif" font-size="14" lengthAdjust="spacing" textLength="480.9629" x="583.41" y="752.607">toJSON(): { nom: string; lancers: number; lancersGagnes: number; }</text></g><!--class NotFoundError--><g class="entity" data-entity="NotFoundError" data-source-line="24" data-uid="ent0010" id="entity_NotFoundError"><rect fill="#F1F1F1" height="64.2969" rx="2.5" ry="2.5" style="stroke:#181818;stroke-width:0.5;" width="134.457" x="1653.66" y="351.31"/><ellipse cx="1668.66" cy="367.31" fill="#ADD1B2" rx="11" ry="11" style="stroke:#181818;stroke-width:1;"/><path d="M1671.6288,372.9506 Q1671.0506,373.2475 1670.41,373.3881 Q1669.7694,373.5444 1669.0663,373.5444 Q1666.5663,373.5444 1665.2381,371.9037 Q1663.9256,370.2475 1663.9256,367.1225 Q1663.9256,363.9975 1665.2381,362.3412 Q1666.5663,360.685 1669.0663,360.685 Q1669.7694,360.685 1670.41,360.8412 Q1671.0663,360.9975 1671.6288,361.2944 L1671.6288,364.0131 Q1671.0038,363.435 1670.41,363.1694 Q1669.8163,362.8881 1669.1913,362.8881 Q1667.8475,362.8881 1667.16,363.9662 Q1666.4725,365.0287 1666.4725,367.1225 Q1666.4725,369.2162 1667.16,370.2944 Q1667.8475,371.3569 1669.1913,371.3569 Q1669.8163,371.3569 1670.41,371.0912 Q1671.0038,370.81 1671.6288,370.2319 L1671.6288,372.9506 Z " fill="#000000"/><text fill="#000000" font-family="sans-serif" font-size="14" lengthAdjust="spacing" textLength="102.457" x="1682.66" y="372.1567">NotFoundError</text><line style="stroke:#181818;stroke-width:0.5;" x1="1654.66" x2="1787.117" y1="383.31" y2="383.31"/><ellipse cx="1664.66" cy="396.9584" fill="none" rx="3" ry="3" style="stroke:#038048;stroke-width:1;"/><text fill="#000000" font-family="sans-serif" font-size="14" lengthAdjust="spacing" textLength="69.6514" x="1673.66" y="400.3051">code: 404</text><line style="stroke:#181818;stroke-width:0.5;" x1="1654.66" x2="1787.117" y1="407.6069" y2="407.6069"/></g><!--class AlreadyExistsError--><g class="entity" data-entity="AlreadyExistsError" data-source-line="27" data-uid="ent0012" id="entity_AlreadyExistsError"><rect fill="#F1F1F1" height="64.2969" rx="2.5" ry="2.5" style="stroke:#181818;stroke-width:0.5;" width="161.3633" x="1823.21" y="351.31"/><ellipse cx="1838.21" cy="367.31" fill="#ADD1B2" rx="11" ry="11" style="stroke:#181818;stroke-width:1;"/><path d="M1841.1788,372.9506 Q1840.6006,373.2475 1839.96,373.3881 Q1839.3194,373.5444 1838.6163,373.5444 Q1836.1163,373.5444 1834.7881,371.9037 Q1833.4756,370.2475 1833.4756,367.1225 Q1833.4756,363.9975 1834.7881,362.3412 Q1836.1163,360.685 1838.6163,360.685 Q1839.3194,360.685 1839.96,360.8412 Q1840.6163,360.9975 1841.1788,361.2944 L1841.1788,364.0131 Q1840.5538,363.435 1839.96,363.1694 Q1839.3663,362.8881 1838.7413,362.8881 Q1837.3975,362.8881 1836.71,363.9662 Q1836.0225,365.0287 1836.0225,367.1225 Q1836.0225,369.2162 1836.71,370.2944 Q1837.3975,371.3569 1838.7413,371.3569 Q1839.3663,371.3569 1839.96,371.0912 Q1840.5538,370.81 1841.1788,370.2319 L1841.1788,372.9506 Z " fill="#000000"/><text fill="#000000" font-family="sans-serif" font-size="14" lengthAdjust="spacing" textLength="129.3633" x="1852.21" y="372.1567">AlreadyExistsError</text><line style="stroke:#181818;stroke-width:0.5;" x1="1824.21" x2="1983.5733" y1="383.31" y2="383.31"/><ellipse cx="1834.21" cy="396.9584" fill="none" rx="3" ry="3" style="stroke:#038048;stroke-width:1;"/><text fill="#000000" font-family="sans-serif" font-size="14" lengthAdjust="spacing" textLength="69.6514" x="1843.21" y="400.3051">code: 400</text><line style="stroke:#181818;stroke-width:0.5;" x1="1824.21" x2="1983.5733" y1="407.6069" y2="407.6069"/></g><!--class JeuDeDes--><g class="entity" data-entity="JeuDeDes" data-source-line="30" data-uid="ent0014" id="entity_JeuDeDes"><rect fill="#F1F1F1" height="210.9688" rx="2.5" ry="2.5" style="stroke:#181818;stroke-width:0.5;" width="253.9238" x="509.93" y="277.97"/><ellipse cx="598.7938" cy="293.97" fill="#ADD1B2" rx="11" ry="11" style="stroke:#181818;stroke-width:1;"/><path d="M601.7625,299.6106 Q601.1844,299.9075 600.5438,300.0481 Q599.9031,300.2044 599.2,300.2044 Q596.7,300.2044 595.3719,298.5637 Q594.0594,296.9075 594.0594,293.7825 Q594.0594,290.6575 595.3719,289.0012 Q596.7,287.345 599.2,287.345 Q599.9031,287.345 600.5438,287.5012 Q601.2,287.6575 601.7625,287.9544 L601.7625,290.6731 Q601.1375,290.095 600.5438,289.8294 Q599.95,289.5481 599.325,289.5481 Q597.9813,289.5481 597.2938,290.6262 Q596.6063,291.6887 596.6063,293.7825 Q596.6063,295.8762 597.2938,296.9544 Q597.9813,298.0169 599.325,298.0169 Q599.95,298.0169 600.5438,297.7512 Q601.1375,297.47 601.7625,296.8919 L601.7625,299.6106 Z " fill="#000000"/><text fill="#000000" font-family="sans-serif" font-size="14" lengthAdjust="spacing" textLength="67.6963" x="619.2938" y="298.8167">JeuDeDes</text><line style="stroke:#181818;stroke-width:0.5;" x1="510.93" x2="762.8538" y1="309.97" y2="309.97"/><rect fill="none" height="6" style="stroke:#C82930;stroke-width:1;" width="6" x="517.93" y="320.6184"/><text fill="#000000" font-family="sans-serif" font-size="14" lengthAdjust="spacing" textLength="214.9355" x="529.93" y="326.9651">_joueurs: Map&lt;string, Joueur&gt;</text><rect fill="none" height="6" style="stroke:#C82930;stroke-width:1;" width="6" x="517.93" y="336.9153"/><text fill="#000000" font-family="sans-serif" font-size="14" lengthAdjust="spacing" textLength="53.3545" x="529.93" y="343.262">_d1: De</text><rect fill="none" height="6" style="stroke:#C82930;stroke-width:1;" width="6" x="517.93" y="353.2122"/><text fill="#000000" font-family="sans-serif" font-size="14" lengthAdjust="spacing" textLength="53.3545" x="529.93" y="359.5589">_d2: De</text><ellipse cx="520.93" cy="372.5091" fill="none" rx="3" ry="3" style="stroke:#038048;stroke-width:1;"/><text fill="#000000" font-family="sans-serif" font-size="14" lengthAdjust="spacing" textLength="101.2197" x="529.93" y="375.8557">joueurs: string</text><line style="stroke:#181818;stroke-width:0.5;" x1="510.93" x2="762.8538" y1="383.1575" y2="383.1575"/><ellipse cx="520.93" cy="396.8059" fill="#84BE84" rx="3" ry="3" style="stroke:#038048;stroke-width:1;"/><text fill="#000000" font-family="sans-serif" font-size="14" lengthAdjust="spacing" textLength="151.2998" x="529.93" y="400.1526">redemarrerJeu(): void</text><ellipse cx="520.93" cy="413.1028" fill="#84BE84" rx="3" ry="3" style="stroke:#038048;stroke-width:1;"/><text fill="#000000" font-family="sans-serif" font-size="14" lengthAdjust="spacing" textLength="227.9238" x="529.93" y="416.4495">demarrerJeu(nom: string): string</text><ellipse cx="520.93" cy="429.3997" fill="#84BE84" rx="3" ry="3" style="stroke:#038048;stroke-width:1;"/><text fill="#000000" font-family="sans-serif" font-size="14" lengthAdjust="spacing" textLength="176.4082" x="529.93" y="432.7464">jouer(nom: string): string</text><ellipse cx="520.93" cy="445.6966" fill="#84BE84" rx="3" ry="3" style="stroke:#038048;stroke-width:1;"/><text fill="#000000" font-family="sans-serif" font-size="14" lengthAdjust="spacing" textLength="222.9541" x="529.93" y="449.0432">terminerJeu(nom: string): string</text><ellipse cx="520.93" cy="461.9934" fill="#84BE84" rx="3" ry="3" style="stroke:#038048;stroke-width:1;"/><text fill="#000000" font-family="sans-serif" font-size="14" lengthAdjust="spacing" textLength="126.9092" x="529.93" y="465.3401">brasser(): number</text><ellipse cx="520.93" cy="478.2903" fill="#84BE84" rx="3" ry="3" style="stroke:#038048;stroke-width:1;"/><text fill="#000000" font-family="sans-serif" font-size="14" lengthAdjust="spacing" textLength="84.2529" x="529.93" y="481.637">clear(): void</text></g><!--class JeuRouter--><g class="entity" data-entity="JeuRouter" data-source-line="42" data-uid="ent0015" id="entity_JeuRouter"><rect fill="#F1F1F1" height="210.9688" rx="2.5" ry="2.5" style="stroke:#181818;stroke-width:0.5;" width="1259.7773" x="7" y="7"/><ellipse cx="598.3188" cy="23" fill="#ADD1B2" rx="11" ry="11" style="stroke:#181818;stroke-width:1;"/><path d="M601.2876,28.6406 Q600.7095,28.9375 600.0688,29.0781 Q599.4282,29.2344 598.7251,29.2344 Q596.2251,29.2344 594.897,27.5938 Q593.5845,25.9375 593.5845,22.8125 Q593.5845,19.6875 594.897,18.0313 Q596.2251,16.375 598.7251,16.375 Q599.4282,16.375 600.0688,16.5313 Q600.7251,16.6875 601.2876,16.9844 L601.2876,19.7031 Q600.6626,19.125 600.0688,18.8594 Q599.4751,18.5781 598.8501,18.5781 Q597.5063,18.5781 596.8188,19.6563 Q596.1313,20.7188 596.1313,22.8125 Q596.1313,24.9063 596.8188,25.9844 Q597.5063,27.0469 598.8501,27.0469 Q599.4751,27.0469 600.0688,26.7813 Q600.6626,26.5 601.2876,25.9219 L601.2876,28.6406 Z " fill="#000000"/><text fill="#000000" font-family="sans-serif" font-size="14" lengthAdjust="spacing" textLength="68.6396" x="618.8188" y="27.8467">JeuRouter</text><line style="stroke:#181818;stroke-width:0.5;" x1="8" x2="1265.7773" y1="39" y2="39"/><rect fill="none" height="6" style="stroke:#C82930;stroke-width:1;" width="6" x="15" y="49.6484"/><text fill="#000000" font-family="sans-serif" font-size="14" lengthAdjust="spacing" textLength="106.2441" x="27" y="55.9951">_router: Router</text><rect fill="none" height="6" style="stroke:#C82930;stroke-width:1;" width="6" x="15" y="65.9453"/><text fill="#000000" font-family="sans-serif" font-size="14" lengthAdjust="spacing" textLength="177.5566" x="27" y="72.292">_controleurJeu: JeuDeDes</text><ellipse cx="18" cy="85.2422" fill="none" rx="3" ry="3" style="stroke:#038048;stroke-width:1;"/><text fill="#000000" font-family="sans-serif" font-size="14" lengthAdjust="spacing" textLength="170.5566" x="27" y="88.5889">controleurJeu: JeuDeDes</text><ellipse cx="18" cy="101.5391" fill="none" rx="3" ry="3" style="stroke:#038048;stroke-width:1;"/><text fill="#000000" font-family="sans-serif" font-size="14" lengthAdjust="spacing" textLength="99.2441" x="27" y="104.8857">router: Router</text><line style="stroke:#181818;stroke-width:0.5;" x1="8" x2="1265.7773" y1="112.1875" y2="112.1875"/><ellipse cx="18" cy="125.8359" fill="#84BE84" rx="3" ry="3" style="stroke:#038048;stroke-width:1;"/><text fill="#000000" font-family="sans-serif" font-size="14" lengthAdjust="spacing" textLength="1219.4082" x="27" y="129.1826">demarrerJeu(req: Request&lt;ParamsDictionary, any, any, QueryString.ParsedQs, Record&lt;string, any&gt;&gt;, res: Response&lt;any, Record&lt;string, any&gt;&gt;, next: NextFunction): void</text><ellipse cx="18" cy="142.1328" fill="#84BE84" rx="3" ry="3" style="stroke:#038048;stroke-width:1;"/><text fill="#000000" font-family="sans-serif" font-size="14" lengthAdjust="spacing" textLength="1167.8926" x="27" y="145.4795">jouer(req: Request&lt;ParamsDictionary, any, any, QueryString.ParsedQs, Record&lt;string, any&gt;&gt;, res: Response&lt;any, Record&lt;string, any&gt;&gt;, next: NextFunction): void</text><rect fill="#F24D5C" height="6" style="stroke:#C82930;stroke-width:1;" width="6" x="15" y="155.4297"/><text fill="#000000" font-family="sans-serif" font-size="14" lengthAdjust="spacing" textLength="1171.9531" x="27" y="161.7764">_errorCode500(error: any, req: Request&lt;ParamsDictionary, any, any, QueryString.ParsedQs, Record&lt;string, any&gt;&gt;, res: Response&lt;any, Record&lt;string, any&gt;&gt;): void</text><ellipse cx="18" cy="174.7266" fill="#84BE84" rx="3" ry="3" style="stroke:#038048;stroke-width:1;"/><text fill="#000000" font-family="sans-serif" font-size="14" lengthAdjust="spacing" textLength="1214.4385" x="27" y="178.0732">terminerJeu(req: Request&lt;ParamsDictionary, any, any, QueryString.ParsedQs, Record&lt;string, any&gt;&gt;, res: Response&lt;any, Record&lt;string, any&gt;&gt;, next: NextFunction): void</text><ellipse cx="18" cy="191.0234" fill="#84BE84" rx="3" ry="3" style="stroke:#038048;stroke-width:1;"/><text fill="#000000" font-family="sans-serif" font-size="14" lengthAdjust="spacing" textLength="1233.7773" x="27" y="194.3701">redemarrerJeu(req: Request&lt;ParamsDictionary, any, any, QueryString.ParsedQs, Record&lt;string, any&gt;&gt;, res: Response&lt;any, Record&lt;string, any&gt;&gt;, next: NextFunction): void</text><ellipse cx="18" cy="207.3203" fill="#84BE84" rx="3" ry="3" style="stroke:#038048;stroke-width:1;"/><text fill="#000000" font-family="sans-serif" font-size="14" lengthAdjust="spacing" textLength="71.8594" x="27" y="210.667">init(): void</text></g><!--class App--><g class="entity" data-entity="App" data-source-line="54" data-uid="ent0016" id="entity_App"><rect fill="#F1F1F1" height="96.8906" rx="2.5" ry="2.5" style="stroke:#181818;stroke-width:0.5;" width="254.6758" x="1818.55" y="64.04"/><ellipse cx="1927.9626" cy="80.04" fill="#ADD1B2" rx="11" ry="11" style="stroke:#181818;stroke-width:1;"/><path d="M1930.9313,85.6806 Q1930.3532,85.9775 1929.7126,86.1181 Q1929.072,86.2744 1928.3688,86.2744 Q1925.8688,86.2744 1924.5407,84.6337 Q1923.2282,82.9775 1923.2282,79.8525 Q1923.2282,76.7275 1924.5407,75.0712 Q1925.8688,73.415 1928.3688,73.415 Q1929.072,73.415 1929.7126,73.5712 Q1930.3688,73.7275 1930.9313,74.0244 L1930.9313,76.7431 Q1930.3063,76.165 1929.7126,75.8994 Q1929.1188,75.6181 1928.4938,75.6181 Q1927.1501,75.6181 1926.4626,76.6962 Q1925.7751,77.7587 1925.7751,79.8525 Q1925.7751,81.9462 1926.4626,83.0244 Q1927.1501,84.0869 1928.4938,84.0869 Q1929.1188,84.0869 1929.7126,83.8212 Q1930.3063,83.54 1930.9313,82.9619 L1930.9313,85.6806 Z " fill="#000000"/><text fill="#000000" font-family="sans-serif" font-size="14" lengthAdjust="spacing" textLength="27.3506" x="1948.4626" y="84.8867">App</text><line style="stroke:#181818;stroke-width:0.5;" x1="1819.55" x2="2072.2258" y1="96.04" y2="96.04"/><ellipse cx="1829.55" cy="109.6884" fill="none" rx="3" ry="3" style="stroke:#038048;stroke-width:1;"/><text fill="#000000" font-family="sans-serif" font-size="14" lengthAdjust="spacing" textLength="228.6758" x="1838.55" y="113.0351">expressApp: express.Application</text><line style="stroke:#181818;stroke-width:0.5;" x1="1819.55" x2="2072.2258" y1="120.3369" y2="120.3369"/><rect fill="#F24D5C" height="6" style="stroke:#C82930;stroke-width:1;" width="6" x="1826.55" y="130.9853"/><text fill="#000000" font-family="sans-serif" font-size="14" lengthAdjust="spacing" textLength="131.9199" x="1838.55" y="137.332">middleware(): void</text><rect fill="#F24D5C" height="6" style="stroke:#C82930;stroke-width:1;" width="6" x="1826.55" y="147.2822"/><text fill="#000000" font-family="sans-serif" font-size="14" lengthAdjust="spacing" textLength="94.3086" x="1838.55" y="153.6289">routes(): void</text></g><!--reverse link Error to default--><g class="link" data-entity-1="Error" data-entity-2="default" data-source-line="7" data-uid="lnk5" id="link_Error_default"><path d="M1334.89,154.89 C1334.89,203.33 1334.89,296.61 1334.89,351.16" fill="none" id="Error-backto-default" style="stroke:#181818;stroke-width:1;"/><polygon fill="none" points="1334.89,136.89,1328.89,154.89,1340.89,154.89,1334.89,136.89" style="stroke:#181818;stroke-width:1;"/></g><!--reverse link AbstractError to InvalidParameterError--><g class="link" data-entity-1="AbstractError" data-entity-2="InvalidParameterError" data-source-line="10" data-uid="lnk8" id="link_AbstractError_InvalidParameterError"><path d="M1693.239,151.4371 C1657.939,199.8771 1587.44,296.61 1547.7,351.16" fill="none" id="AbstractError-backto-InvalidParameterError" style="stroke:#181818;stroke-width:1;"/><polygon fill="none" points="1703.84,136.89,1688.3899,147.9034,1698.088,154.9708,1703.84,136.89" style="stroke:#181818;stroke-width:1;"/></g><!--reverse link AbstractError to NotFoundError--><g class="link" data-entity-1="AbstractError" data-entity-2="NotFoundError" data-source-line="25" data-uid="lnk11" id="link_AbstractError_NotFoundError"><path d="M1720.89,154.89 C1720.89,203.33 1720.89,296.61 1720.89,351.16" fill="none" id="AbstractError-backto-NotFoundError" style="stroke:#181818;stroke-width:1;"/><polygon fill="none" points="1720.89,136.89,1714.89,154.89,1726.89,154.89,1720.89,136.89" style="stroke:#181818;stroke-width:1;"/></g><!--reverse link AbstractError to AlreadyExistsError--><g class="link" data-entity-1="AbstractError" data-entity-2="AlreadyExistsError" data-source-line="28" data-uid="lnk13" id="link_AbstractError_AlreadyExistsError"><path d="M1746.9359,151.7717 C1779.8959,200.2117 1845.48,296.61 1882.59,351.16" fill="none" id="AbstractError-backto-AlreadyExistsError" style="stroke:#181818;stroke-width:1;"/><polygon fill="none" points="1736.81,136.89,1741.9754,155.147,1751.8965,148.3964,1736.81,136.89" style="stroke:#181818;stroke-width:1;"/></g><!--link JeuDeDes to Joueur--><g class="link" data-entity-1="JeuDeDes" data-entity-2="Joueur" data-source-line="59" data-uid="lnk17" id="link_JeuDeDes_Joueur"><path codeLine="59" d="M707,489.22 C720.03,508.69 730.3024,524.044 743.3424,543.524" fill="none" id="JeuDeDes-to-Joueur" style="stroke:#181818;stroke-width:1;"/><polygon fill="#181818" points="746.68,548.51,744.9975,538.8059,743.8986,544.355,738.3495,543.2561,746.68,548.51" style="stroke:#181818;stroke-width:1;"/><text fill="#000000" font-family="sans-serif" font-size="13" lengthAdjust="spacing" textLength="8.271" x="733.703" y="537.9613">1</text></g><!--link JeuDeDes to De--><g class="link" data-entity-1="JeuDeDes" data-entity-2="De" data-source-line="60" data-uid="lnk18" id="link_JeuDeDes_De"><path codeLine="60" d="M567.17,489.22 C540.37,529.49 514.4039,568.5048 492.9039,600.8148" fill="none" id="JeuDeDes-to-De" style="stroke:#181818;stroke-width:1;"/><polygon fill="#181818" points="489.58,605.81,497.896,600.5332,492.3499,601.6474,491.2358,596.1013,489.58,605.81" style="stroke:#181818;stroke-width:1;"/><text fill="#000000" font-family="sans-serif" font-size="13" lengthAdjust="spacing" textLength="8.271" x="485.4928" y="594.995">1</text></g><!--link JeuRouter to JeuDeDes--><g class="link" data-entity-1="JeuRouter" data-entity-2="JeuDeDes" data-source-line="61" data-uid="lnk19" id="link_JeuRouter_JeuDeDes"><path codeLine="61" d="M636.89,218.25 C636.89,237.72 636.89,252.06 636.89,271.54" fill="none" id="JeuRouter-to-JeuDeDes" style="stroke:#181818;stroke-width:1;"/><polygon fill="#181818" points="636.89,277.54,640.89,268.54,636.89,272.54,632.89,268.54,636.89,277.54" style="stroke:#181818;stroke-width:1;"/><text fill="#000000" font-family="sans-serif" font-size="13" lengthAdjust="spacing" textLength="8.271" x="628.6302" y="266.9913">1</text></g><!--SRC=[pLNDRjim3BxtAOIUKYGkqg6xk460Occ75LksjWzGA18NQB0bbvAx147UVRHigrAITTWkYm-6zP7yIF7Fek3MiXcmpGcZ9tjwuGNKc3DTbmj03muNI4g0WxESlHWbMt17SNl25zOX5uu9podXEwyBns3bG4lBRX0DTcw6crvvouIH4B6qnfyqqIlvZIClmG6snZtLTMUSKBOyb-Dn8BapDKKORgPDcJCoL7hP8ulFN0j0crmtmZ_ofOPKEjoZ8LTSQOLpKmuYuLcYDImEUEh1GsvQKPhoPQEtWpbpz_Xrtc0R5dc_OZiE0v0wksBRaA-vSRUcrl8ladqPZAyB12xNDojbdVstSa4zWndOKB0VlduKwXTUJTfhZRgYJZiLUP5Jy_Q7T-4mH91GSaH0eaqp5Wj-Nw_6ERuXfwOibVuJIpGvSN550NodZk6odNcKbGTJaxUG5lJ7dBLm1mgZ7Pfc8iaW3xdiS_s6y01TaYA4PnB2SmtMJVn0sfaIJXdDSJrYNFUlUqhO-j57Vqvw5kIz7P6bC2X3-KXpEXqnR3hm0Mnbj8M9Dp-igAc9SZQdzssjlTUzhE5HXvWzGTFs7wZTtu_70t_8ssZ-PzZf3ebw-QZBdKxrKOTAVmGN9ZmioQhgzn-iAd9b2SbPztrEXq89td2rlLCgAGluoH6IPP7vcRKHVTYTMJPbfnUdtPhSnsa_lcwKeDnf_G80]--></g></svg>