<svg xmlns="http://www.w3.org/2000/svg" xmlns:xlink="http://www.w3.org/1999/xlink" contentStyleType="text/css" data-diagram-type="SEQUENCE" height="569px" preserveAspectRatio="none" style="width:688px;height:569px;background:#FFFFFF;" version="1.1" viewBox="0 0 688 569" width="688px" zoomAndPan="magnify"><title>RDCU pour jouer</title><defs/><g><text fill="#000000" font-family="Verdana" font-size="14" font-weight="bold" lengthAdjust="spacing" textLength="131.0859" x="280.0205" y="27.9951">RDCU pour jouer</text><rect fill="none" height="52.2656" style="stroke:#000000;stroke-width:1.5;" width="639.186" x="42.9409" y="423.0859"/><g><title>.JeuDeDes</title><rect fill="#000000" fill-opacity="0.00000" height="472.7266" width="8" x="92.1475" y="89.8906"/><line style="stroke:#181818;stroke-width:0.5;stroke-dasharray:5,5;" x1="95.9409" x2="95.9409" y1="89.8906" y2="562.6172"/></g><g><title>joueurs.</title><rect fill="#000000" fill-opacity="0.00000" height="472.7266" width="8" x="235.3755" y="89.8906"/><line style="stroke:#181818;stroke-width:0.5;stroke-dasharray:5,5;" x1="239.3521" x2="239.3521" y1="89.8906" y2="562.6172"/></g><g><title>d1.De</title><rect fill="#000000" fill-opacity="0.00000" height="472.7266" width="8" x="352.3511" y="89.8906"/><line style="stroke:#181818;stroke-width:0.5;stroke-dasharray:5,5;" x1="355.3989" x2="355.3989" y1="89.8906" y2="562.6172"/></g><g><title>d2.De</title><rect fill="#000000" fill-opacity="0.00000" height="472.7266" width="8" x="418.2554" y="89.8906"/><line style="stroke:#181818;stroke-width:0.5;stroke-dasharray:5,5;" x1="421.3032" x2="421.3032" y1="89.8906" y2="562.6172"/></g><g><title>d3.De</title><rect fill="#000000" fill-opacity="0.00000" height="472.7266" width="8" x="484.1597" y="89.8906"/><line style="stroke:#181818;stroke-width:0.5;stroke-dasharray:5,5;" x1="487.2075" x2="487.2075" y1="89.8906" y2="562.6172"/></g><g><title>j.Joueur</title><rect fill="#000000" fill-opacity="0.00000" height="472.7266" width="8" x="555.8198" y="89.8906"/><line style="stroke:#181818;stroke-width:0.5;stroke-dasharray:5,5;" x1="559.1118" x2="559.1118" y1="89.8906" y2="562.6172"/></g><g class="participant participant-head" data-participant="c"><rect fill="#E2E2F0" height="30.2969" rx="2.5" ry="2.5" style="stroke:#181818;stroke-width:0.5;" width="86.4131" x="52.9409" y="58.5938"/><text fill="#000000" font-family="Verdana" font-size="14" lengthAdjust="spacing" textLength="72.4131" x="59.9409" y="78.5889">:JeuDeDes</text></g><g class="participant participant-head" data-participant="jm"><rect fill="#E2E2F0" height="46.5938" rx="2.5" ry="2.5" style="stroke:#181818;stroke-width:0.5;" width="158.0469" x="160.3521" y="42.2969"/><text fill="#000000" font-family="Verdana" font-size="14" lengthAdjust="spacing" textLength="56.5811" x="211.085" y="62.292">joueurs:</text><text fill="#000000" font-family="Verdana" font-size="14" lengthAdjust="spacing" textLength="144.0469" x="167.3521" y="78.5889">Map&lt;String,Joueur&gt;</text></g><g class="participant participant-head" data-participant="d1"><rect fill="#E2E2F0" height="30.2969" rx="2.5" ry="2.5" style="stroke:#181818;stroke-width:0.5;" width="55.9043" x="328.3989" y="58.5938"/><text fill="#000000" font-family="Verdana" font-size="14" lengthAdjust="spacing" textLength="41.9043" x="335.3989" y="78.5889">d1:De</text></g><g class="participant participant-head" data-participant="d2"><rect fill="#E2E2F0" height="30.2969" rx="2.5" ry="2.5" style="stroke:#181818;stroke-width:0.5;" width="55.9043" x="394.3032" y="58.5938"/><text fill="#000000" font-family="Verdana" font-size="14" lengthAdjust="spacing" textLength="41.9043" x="401.3032" y="78.5889">d2:De</text></g><g class="participant participant-head" data-participant="d3"><rect fill="#E2E2F0" height="30.2969" rx="2.5" ry="2.5" style="stroke:#181818;stroke-width:0.5;" width="55.9043" x="460.2075" y="58.5938"/><text fill="#000000" font-family="Verdana" font-size="14" lengthAdjust="spacing" textLength="41.9043" x="467.2075" y="78.5889">d3:De</text></g><g class="participant participant-head" data-participant="j"><rect fill="#E2E2F0" height="30.2969" rx="2.5" ry="2.5" style="stroke:#181818;stroke-width:0.5;" width="67.416" x="526.1118" y="58.5938"/><text fill="#000000" font-family="Verdana" font-size="14" lengthAdjust="spacing" textLength="53.416" x="533.1118" y="78.5889">j:Joueur</text></g><g class="message" data-participant-1="c" data-participant-2="c"><polygon fill="#181818" points="84.1475,120.0234,94.1475,124.0234,84.1475,128.0234" style="stroke:#181818;stroke-width:1;"/><line style="stroke:#181818;stroke-width:1;" x1="0" x2="90.1475" y1="124.0234" y2="124.0234"/><text fill="#000000" font-family="Verdana" font-size="13" lengthAdjust="spacing" textLength="72.1475" x="7" y="118.9575">jouer(nom)</text></g><path d="M101,104.8906 L101,129.8906 L229,129.8906 L229,114.8906 L219,104.8906 L101,104.8906" fill="#FEFFDD" style="stroke:#181818;stroke-width:0.5;"/><path d="M219,104.8906 L219,114.8906 L229,114.8906 L219,104.8906" fill="#FEFFDD" style="stroke:#181818;stroke-width:0.5;"/><text fill="#000000" font-family="Verdana" font-size="13" lengthAdjust="spacing" textLength="107.5674" x="107" y="121.9575">selon Contr&#244;leur</text><g class="message" data-participant-1="c" data-participant-2="jm"><polygon fill="#181818" points="227.3755,155.1563,237.3755,159.1563,227.3755,163.1563" style="stroke:#181818;stroke-width:1;"/><line style="stroke:#181818;stroke-width:1;" x1="96.1475" x2="233.3755" y1="159.1563" y2="159.1563"/><text fill="#000000" font-family="Verdana" font-size="13" lengthAdjust="spacing" textLength="119.228" x="103.1475" y="154.0903">j = chercher(nom)</text></g><path d="M244,140.0234 L244,165.0234 L466,165.0234 L466,150.0234 L456,140.0234 L244,140.0234" fill="#FEFFDD" style="stroke:#181818;stroke-width:0.5;"/><path d="M456,140.0234 L456,150.0234 L466,150.0234 L456,140.0234" fill="#FEFFDD" style="stroke:#181818;stroke-width:0.5;"/><text fill="#000000" font-family="Verdana" font-size="13" lengthAdjust="spacing" textLength="201.0176" x="250" y="157.0903">selon Transformer ID en objets</text><g class="message" data-participant-1="c" data-participant-2="d1"><polygon fill="#181818" points="344.3511,190.2891,354.3511,194.2891,344.3511,198.2891" style="stroke:#181818;stroke-width:1;"/><line style="stroke:#181818;stroke-width:1;" x1="96.1475" x2="350.3511" y1="194.2891" y2="194.2891"/><text fill="#000000" font-family="Verdana" font-size="13" lengthAdjust="spacing" textLength="58.5952" x="103.1475" y="189.2231">brasser()</text></g><path d="M361,175.1563 L361,200.1563 L463,200.1563 L463,185.1563 L453,175.1563 L361,175.1563" fill="#FEFFDD" style="stroke:#181818;stroke-width:0.5;"/><path d="M453,175.1563 L453,185.1563 L463,185.1563 L453,175.1563" fill="#FEFFDD" style="stroke:#181818;stroke-width:0.5;"/><text fill="#000000" font-family="Verdana" font-size="13" lengthAdjust="spacing" textLength="81.3071" x="367" y="192.2231">selon Expert</text><g class="message" data-participant-1="c" data-participant-2="d1"><polygon fill="#181818" points="344.3511,225.4219,354.3511,229.4219,344.3511,233.4219" style="stroke:#181818;stroke-width:1;"/><line style="stroke:#181818;stroke-width:1;" x1="96.1475" x2="350.3511" y1="229.4219" y2="229.4219"/><text fill="#000000" font-family="Verdana" font-size="13" lengthAdjust="spacing" textLength="75.9751" x="103.1475" y="224.356">v1 = valeur</text></g><path d="M361,210.2891 L361,235.2891 L463,235.2891 L463,220.2891 L453,210.2891 L361,210.2891" fill="#FEFFDD" style="stroke:#181818;stroke-width:0.5;"/><path d="M453,210.2891 L453,220.2891 L463,220.2891 L453,210.2891" fill="#FEFFDD" style="stroke:#181818;stroke-width:0.5;"/><text fill="#000000" font-family="Verdana" font-size="13" lengthAdjust="spacing" textLength="81.3071" x="367" y="227.356">selon Expert</text><g class="message" data-participant-1="c" data-participant-2="d2"><polygon fill="#181818" points="410.2554,260.5547,420.2554,264.5547,410.2554,268.5547" style="stroke:#181818;stroke-width:1;"/><line style="stroke:#181818;stroke-width:1;" x1="96.1475" x2="416.2554" y1="264.5547" y2="264.5547"/><text fill="#000000" font-family="Verdana" font-size="13" lengthAdjust="spacing" textLength="58.5952" x="103.1475" y="259.4888">brasser()</text></g><path d="M427,245.4219 L427,270.4219 L529,270.4219 L529,255.4219 L519,245.4219 L427,245.4219" fill="#FEFFDD" style="stroke:#181818;stroke-width:0.5;"/><path d="M519,245.4219 L519,255.4219 L529,255.4219 L519,245.4219" fill="#FEFFDD" style="stroke:#181818;stroke-width:0.5;"/><text fill="#000000" font-family="Verdana" font-size="13" lengthAdjust="spacing" textLength="81.3071" x="433" y="262.4888">selon Expert</text><g class="message" data-participant-1="c" data-participant-2="d3"><polygon fill="#181818" points="476.1597,295.6875,486.1597,299.6875,476.1597,303.6875" style="stroke:#181818;stroke-width:1;"/><line style="stroke:#181818;stroke-width:1;" x1="96.1475" x2="482.1597" y1="299.6875" y2="299.6875"/><text fill="#000000" font-family="Verdana" font-size="13" lengthAdjust="spacing" textLength="58.5952" x="103.1475" y="294.6216">brasser()</text></g><path d="M493,280.5547 L493,305.5547 L595,305.5547 L595,290.5547 L585,280.5547 L493,280.5547" fill="#FEFFDD" style="stroke:#181818;stroke-width:0.5;"/><path d="M585,280.5547 L585,290.5547 L595,290.5547 L585,280.5547" fill="#FEFFDD" style="stroke:#181818;stroke-width:0.5;"/><text fill="#000000" font-family="Verdana" font-size="13" lengthAdjust="spacing" textLength="81.3071" x="499" y="297.6216">selon Expert</text><g class="message" data-participant-1="c" data-participant-2="d2"><polygon fill="#181818" points="410.2554,330.8203,420.2554,334.8203,410.2554,338.8203" style="stroke:#181818;stroke-width:1;"/><line style="stroke:#181818;stroke-width:1;" x1="96.1475" x2="416.2554" y1="334.8203" y2="334.8203"/><text fill="#000000" font-family="Verdana" font-size="13" lengthAdjust="spacing" textLength="75.9751" x="103.1475" y="329.7544">v2 = valeur</text></g><path d="M427,315.6875 L427,340.6875 L529,340.6875 L529,325.6875 L519,315.6875 L427,315.6875" fill="#FEFFDD" style="stroke:#181818;stroke-width:0.5;"/><path d="M519,315.6875 L519,325.6875 L529,325.6875 L519,315.6875" fill="#FEFFDD" style="stroke:#181818;stroke-width:0.5;"/><text fill="#000000" font-family="Verdana" font-size="13" lengthAdjust="spacing" textLength="81.3071" x="433" y="332.7544">selon Expert</text><g class="message" data-participant-1="c" data-participant-2="d3"><polygon fill="#181818" points="476.1597,365.9531,486.1597,369.9531,476.1597,373.9531" style="stroke:#181818;stroke-width:1;"/><line style="stroke:#181818;stroke-width:1;" x1="96.1475" x2="482.1597" y1="369.9531" y2="369.9531"/><text fill="#000000" font-family="Verdana" font-size="13" lengthAdjust="spacing" textLength="75.9751" x="103.1475" y="364.8872">v3 = valeur</text></g><path d="M493,350.8203 L493,375.8203 L595,375.8203 L595,360.8203 L585,350.8203 L493,350.8203" fill="#FEFFDD" style="stroke:#181818;stroke-width:0.5;"/><path d="M585,350.8203 L585,360.8203 L595,360.8203 L585,350.8203" fill="#FEFFDD" style="stroke:#181818;stroke-width:0.5;"/><text fill="#000000" font-family="Verdana" font-size="13" lengthAdjust="spacing" textLength="81.3071" x="499" y="367.8872">selon Expert</text><g class="message" data-participant-1="c" data-participant-2="j"><polygon fill="#181818" points="547.8198,401.0859,557.8198,405.0859,547.8198,409.0859" style="stroke:#181818;stroke-width:1;"/><line style="stroke:#181818;stroke-width:1;" x1="96.1475" x2="553.8198" y1="405.0859" y2="405.0859"/><text fill="#000000" font-family="Verdana" font-size="13" lengthAdjust="spacing" textLength="91.749" x="103.1475" y="400.02">incNbParties()</text></g><path d="M564,385.9531 L564,410.9531 L666,410.9531 L666,395.9531 L656,385.9531 L564,385.9531" fill="#FEFFDD" style="stroke:#181818;stroke-width:0.5;"/><path d="M656,385.9531 L656,395.9531 L666,395.9531 L656,385.9531" fill="#FEFFDD" style="stroke:#181818;stroke-width:0.5;"/><text fill="#000000" font-family="Verdana" font-size="13" lengthAdjust="spacing" textLength="81.3071" x="570" y="403.02">selon Expert</text><path d="M42.9409,423.0859 L112.3921,423.0859 L112.3921,430.2188 L102.3921,440.2188 L42.9409,440.2188 L42.9409,423.0859" fill="#EEEEEE" style="stroke:#000000;stroke-width:1.5;"/><rect fill="none" height="52.2656" style="stroke:#000000;stroke-width:1.5;" width="639.186" x="42.9409" y="423.0859"/><text fill="#000000" font-family="Verdana" font-size="13" font-weight="bold" lengthAdjust="spacing" textLength="24.4512" x="57.9409" y="436.1528">opt</text><text fill="#000000" font-family="Verdana" font-size="11" font-weight="bold" lengthAdjust="spacing" textLength="129.6797" x="127.3921" y="435.2964">[v1 + v2 + v3 &lt;= 10]</text><g class="message" data-participant-1="c" data-participant-2="j"><polygon fill="#181818" points="547.8198,460.3516,557.8198,464.3516,547.8198,468.3516" style="stroke:#181818;stroke-width:1;"/><line style="stroke:#181818;stroke-width:1;" x1="96.1475" x2="553.8198" y1="464.3516" y2="464.3516"/><text fill="#000000" font-family="Verdana" font-size="13" lengthAdjust="spacing" textLength="149.0493" x="103.1475" y="459.2856">incNbPartiesGagnees()</text></g><path d="M564,445.2188 L564,470.2188 L666,470.2188 L666,455.2188 L656,445.2188 L564,445.2188" fill="#FEFFDD" style="stroke:#181818;stroke-width:0.5;"/><path d="M656,445.2188 L656,455.2188 L666,455.2188 L656,445.2188" fill="#FEFFDD" style="stroke:#181818;stroke-width:0.5;"/><text fill="#000000" font-family="Verdana" font-size="13" lengthAdjust="spacing" textLength="81.3071" x="570" y="462.2856">selon Expert</text><g class="message" data-participant-1="c" data-participant-2="j"><polygon fill="#181818" points="547.8198,502.4844,557.8198,506.4844,547.8198,510.4844" style="stroke:#181818;stroke-width:1;"/><line style="stroke:#181818;stroke-width:1;" x1="96.1475" x2="553.8198" y1="506.4844" y2="506.4844"/><text fill="#000000" font-family="Verdana" font-size="13" lengthAdjust="spacing" textLength="88.5308" x="103.1475" y="501.4185">p = nbParties</text></g><path d="M564,487.3516 L564,512.3516 L666,512.3516 L666,497.3516 L656,487.3516 L564,487.3516" fill="#FEFFDD" style="stroke:#181818;stroke-width:0.5;"/><path d="M656,487.3516 L656,497.3516 L666,497.3516 L656,487.3516" fill="#FEFFDD" style="stroke:#181818;stroke-width:0.5;"/><text fill="#000000" font-family="Verdana" font-size="13" lengthAdjust="spacing" textLength="81.3071" x="570" y="504.4185">selon Expert</text><g class="message" data-participant-1="c" data-participant-2="j"><polygon fill="#181818" points="547.8198,537.6172,557.8198,541.6172,547.8198,545.6172" style="stroke:#181818;stroke-width:1;"/><line style="stroke:#181818;stroke-width:1;" x1="96.1475" x2="553.8198" y1="541.6172" y2="541.6172"/><text fill="#000000" font-family="Verdana" font-size="13" lengthAdjust="spacing" textLength="145.8311" x="103.1475" y="536.5513">g = nbPartiesGagnees</text></g><path d="M564,522.4844 L564,547.4844 L666,547.4844 L666,532.4844 L656,522.4844 L564,522.4844" fill="#FEFFDD" style="stroke:#181818;stroke-width:0.5;"/><path d="M656,522.4844 L656,532.4844 L666,532.4844 L656,522.4844" fill="#FEFFDD" style="stroke:#181818;stroke-width:0.5;"/><text fill="#000000" font-family="Verdana" font-size="13" lengthAdjust="spacing" textLength="81.3071" x="570" y="539.5513">selon Expert</text><!--SRC=[bP5DJiCm58JtFiKJAr2fH99Tr7RJ84Gb4E9lnSPrNbE7-3codGZknGsu67PA8rgrfLqa2y_CDnF7lakgkU4AhFkiqB-D5AvH5REzakE2DvLRQ7B45S8hcfmJPquwdtZCfYzGwyP0gHiqp6US5BBcvE0idM6JOORs3BW5iIa6VsDi-aPtl1uz-MOgBcVTuQJpbsepa4TfXfsIHrjAt2lnbfBqIiAs-jDLsQgB3IS2qjL7d9DM5uoqGp2oM3f_Rh7I15D_1-Rxg_8f9eQJKeK4Z44iqOHdR_3PSB8BRHGQkCq02VIyH6S39O-yRMwujHwmCttzKQDnlRUDV6NBknM7tV49vEG4R-2syR4h0hbDZdIN_aoIk9y_X7-5zk0MNRjm6uCmPX0wHcE8hXZ03j0DBmWx7i1-8b8EdhfUKllLj2RyFxpuQ_yjt9_w0G00]--></g></svg>