<svg xmlns="http://www.w3.org/2000/svg" xmlns:xlink="http://www.w3.org/1999/xlink" contentStyleType="text/css" data-diagram-type="SEQUENCE" height="211px" preserveAspectRatio="none" style="width:202px;height:211px;background:#FFFFFF;" version="1.1" viewBox="0 0 202 211" width="202px" zoomAndPan="magnify"><defs/><g><g><title>Joueur</title><rect fill="#000000" fill-opacity="0.00000" height="49.1328" width="8" x="26.4048" y="81.2969"/><line style="stroke:#181818;stroke-width:0.5;stroke-dasharray:5,5;" x1="30" x2="30" y1="81.2969" y2="130.4297"/></g><g><title>Syst.me</title><rect fill="#000000" fill-opacity="0.00000" height="49.1328" width="8" x="154.8745" y="81.2969"/><line style="stroke:#181818;stroke-width:0.5;stroke-dasharray:5,5;" x1="158.4648" x2="158.4648" y1="81.2969" y2="130.4297"/></g><g class="participant participant-head" data-participant="Joueur"><text fill="#000000" font-family="sans-serif" font-size="14" lengthAdjust="spacing" textLength="44.8096" x="5" y="77.9951">Joueur</text><ellipse cx="30.4048" cy="13.5" fill="#E2E2F0" rx="8" ry="8" style="stroke:#181818;stroke-width:0.5;"/><path d="M30.4048,21.5 L30.4048,48.5 M17.4048,29.5 L43.4048,29.5 M30.4048,48.5 L17.4048,63.5 M30.4048,48.5 L43.4048,63.5" fill="none" style="stroke:#181818;stroke-width:0.5;"/></g><g class="participant participant-tail" data-participant="Joueur"><text fill="#000000" font-family="sans-serif" font-size="14" lengthAdjust="spacing" textLength="44.8096" x="5" y="142.4248">Joueur</text><ellipse cx="30.4048" cy="154.2266" fill="#E2E2F0" rx="8" ry="8" style="stroke:#181818;stroke-width:0.5;"/><path d="M30.4048,162.2266 L30.4048,189.2266 M17.4048,170.2266 L43.4048,170.2266 M30.4048,189.2266 L17.4048,204.2266 M30.4048,189.2266 L43.4048,204.2266" fill="none" style="stroke:#181818;stroke-width:0.5;"/></g><g class="participant participant-head" data-participant="Syst.me"><rect fill="#E2E2F0" height="30.2969" rx="2.5" ry="2.5" style="stroke:#181818;stroke-width:0.5;" width="74.8193" x="121.4648" y="50"/><text fill="#000000" font-family="sans-serif" font-size="14" lengthAdjust="spacing" textLength="60.8193" x="128.4648" y="69.9951">Syst&#232;me</text></g><g class="participant participant-tail" data-participant="Syst.me"><rect fill="#E2E2F0" height="30.2969" rx="2.5" ry="2.5" style="stroke:#181818;stroke-width:0.5;" width="74.8193" x="121.4648" y="129.4297"/><text fill="#000000" font-family="sans-serif" font-size="14" lengthAdjust="spacing" textLength="60.8193" x="128.4648" y="149.4248">Syst&#232;me</text></g><g class="message" data-participant-1="Joueur" data-participant-2="Syst.me"><polygon fill="#181818" points="146.8745,108.4297,156.8745,112.4297,146.8745,116.4297,150.8745,112.4297" style="stroke:#181818;stroke-width:1;"/><line style="stroke:#181818;stroke-width:1;" x1="30.4048" x2="152.8745" y1="112.4297" y2="112.4297"/><text fill="#000000" font-family="sans-serif" font-size="13" lengthAdjust="spacing" textLength="104.4697" x="37.4048" y="107.3638">red&#233;marrerJeu()</text></g><!--SRC=[KrTm2GvMACWlBLB8ILKeJZwyCY-nA3DV8IWrvV3AtCIYejGYBgx4v9By8WMl_DBKKY2l8B6e93Cvio0nhqGXkBAuvF2At5GkBeYiWguTN4p1Ig48OOfNQgc69W00]--></g></svg>